:version 1.10
:name ASF
:units
  mass 1
  length 1
  angle deg
:documentation
  ASF file generated by Kaydara
:root
  axis xyz
  order  tx ty tz rx ry rz
  position 0 0 0
  orientation 0 0 0
:bonedata
  begin
    id 1
    name RightUpLegDummy
    direction -0.718183 -0.695806 0.00816078
    length 4.904
    axis 0 0 0 xyz
  end
  begin
    id 2
    name RightUpLeg
    direction 3.53989e-006 -0.995788 0.0916897
    length 17.4976
    axis -3.49089 -0.000906621 0.000287158 xyz
    dof rx ry rz
  end
  begin
    id 3
    name RightLeg
    direction 0.00371093 -0.995096 -0.0988418
    length 16.5821
    axis 3.68512 0.0193738 -0.131023 xyz
    dof rx ry rz
  end
  begin
    id 4
    name RightFoot
    direction 0.000791514 -0.46099 0.887405
    length 3.77069
    axis 4.84075e-005 -0.120479 -0.188788 xyz
    dof rx ry rz
  end
  begin
    id 5
    name RightToes
    direction 0.00124746 -0.014064 0.9999
    length 3.85082
    axis 0.00048216 0.542163 -0.142577 xyz
    dof rx ry rz
  end
  begin
    id 6
    name SpineDummy
    direction 8.3039e-015 1 4.57515e-016
    length 4.6813
    axis 0 0 0 xyz
  end
  begin
    id 7
    name Spine
    direction -4.63632e-008 0.999988 0.00495137
    length 10.1015
    axis -0.00138897 0.000121419 3.25764e-006 xyz
    dof rx ry rz
  end
  begin
    id 8
    name Spine1
    direction 0 0 0
    length 0
    axis -0.00138896 0.000121452 2.39764e-006 xyz
    dof rx ry rz
  end
  begin
    id 9
    name HEadDummy
    direction -3.91456e-008 0.999999 0.00127422
    length 3.43865
    axis -0.00138896 0.000121452 2.39764e-006 xyz
  end
  begin
    id 10
    name HEad
    direction -0.0222688 0.980941 0.193023
    length 5.12695
    axis -0.00138895 0.000121452 2.39764e-006 xyz
    dof rx ry rz
  end
  begin
    id 11
    name LeftShoulder1Dummy
    direction 0.998891 -0.0402508 -0.0244456
    length 3.5433
    axis -0.00138896 0.000121452 2.39764e-006 xyz
  end
  begin
    id 12
    name LeftShoulder1
    direction 0.99951 -0.000327743 0.0313091
    length 4.05031
    axis -0.00138896 0.000121452 2.39764e-006 xyz
    dof rx ry rz
  end
  begin
    id 13
    name LeftArm
    direction 0.998561 -0.00100054 -0.0536182
    length 10.3537
    axis -23.1894 0.134784 0.96751 xyz
    dof rx ry rz
  end
  begin
    id 14
    name LeftForeArm
    direction 0.998903 0.00866434 0.046012
    length 8.70632
    axis -9.91835 -0.06569 -0.177792 xyz
    dof rx ry rz
  end
  begin
    id 15
    name LeftHand
    direction 0.992938 -0.0411636 0.11126
    length 5.32135
    axis -0.00960227 -0.00340091 0.185174 xyz
    dof rx ry rz
  end
  begin
    id 16
    name RightShoulderDummy
    direction -0.998891 -0.0402509 -0.0244414
    length 3.5433
    axis -0.00138896 0.000121452 2.39764e-006 xyz
  end
  begin
    id 17
    name RightShoulder
    direction -0.99951 -0.000327827 0.0313133
    length 4.05031
    axis 0.215806 0.000203644 -0.00680151 xyz
    dof rx ry rz
  end
  begin
    id 18
    name RightArm
    direction -0.998573 -0.000999583 -0.053403
    length 10.3947
    axis -23.2009 -0.134239 -0.9641 xyz
    dof rx ry rz
  end
  begin
    id 19
    name RightForeArm
    direction -0.998898 0.00868026 0.0461306
    length 8.68355
    axis -9.92322 0.0658061 0.178869 xyz
    dof rx ry rz
  end
  begin
    id 20
    name RightHand
    direction -0.992843 -0.0414603 0.112003
    length 5.28593
    axis -0.00960634 0.00330671 -0.185226 xyz
    dof rx ry rz
  end
  begin
    id 21
    name LeftUpLegDummy
    direction 0.718183 -0.695806 0.00816078
    length 4.904
    axis 0 0 0 xyz
  end
  begin
    id 22
    name LeftUpLeg
    direction -6.8115e-006 -0.995793 0.0916336
    length 17.4976
    axis -3.48766 0.00143441 -0.000523914 xyz
    dof rx ry rz
  end
  begin
    id 23
    name LeftLeg
    direction -0.00601357 -0.995091 -0.0987824
    length 16.5821
    axis 3.68177 -0.00654038 -0.00028478 xyz
    dof rx ry rz
  end
  begin
    id 24
    name LeftFoot
    direction -0.00417578 -0.460984 0.887399
    length 3.77069
    axis 1.87232e-006 4.66002e-005 -8.1837e-006 xyz
    dof rx ry rz
  end
  begin
    id 25
    name LeftToes
    direction 0.00818058 -0.00485161 0.999955
    length 3.85048
    axis 1.06246e-005 4.65855e-005 -8.18502e-006 xyz
    dof rx ry rz
  end
:hierarchy
  begin
    root RightUpLegDummy SpineDummy LeftUpLegDummy
    RightUpLegDummy RightUpLeg
    RightUpLeg RightLeg
    RightLeg RightFoot
    RightFoot RightToes
    SpineDummy Spine
    Spine Spine1
    Spine1 HEadDummy LeftShoulder1Dummy RightShoulderDummy
    HEadDummy HEad
    LeftShoulder1Dummy LeftShoulder1
    LeftShoulder1 LeftArm
    LeftArm LeftForeArm
    LeftForeArm LeftHand
    RightShoulderDummy RightShoulder
    RightShoulder RightArm
    RightArm RightForeArm
    RightForeArm RightHand
    LeftUpLegDummy LeftUpLeg
    LeftUpLeg LeftLeg
    LeftLeg LeftFoot
    LeftFoot LeftToes
  end

:SAMPLES-PER-SECOND 30
:FRAME-RANGE 1-2091
:FULLY-SPECIFIED
:DEGREES
1
root  13.7055 39.6561 -151.3 1.26978 -5.74497 -0.947876
RightUpLeg  -7.79345 -4.33773 -0.621576
RightLeg  16.1974 -5.09947 -1.85106
RightFoot  -9.21134 -0.13943 4.13228
RightToes  5.38607e-012 1.2921e-014 -6.02303e-014
Spine  -6.71118 -3.79424 -2.97412
Spine1  9.22927 -4.2163 0.890036
HEad  51.6061 12.0675 3.50882
LeftShoulder1  0.0669436 3.07294 -22.9217
LeftArm  -3.77473 10.4151 -51.8652
LeftForeArm  32.3628 2.42373 -12.3776
LeftHand  0.0160479 6.56122 4.56605
RightShoulder  1.1683 0.215127 27.1085
RightArm  -29.4419 -4.38126 49.5867
RightForeArm  65.7768 -5.15714 1.67964
RightHand  0.189128 -6.69671 -18.045
LeftUpLeg  -6.92308 -1.82477 -0.709527
LeftLeg  14.294 -2.66095 1.25039
LeftFoot  -8.10244 0.0121112 1.29543
LeftToes  -7.20997e-011 3.75522e-011 -2.80735e-011
2
root  13.5099 39.771 -151.08 1.34548 -5.63584 -1.0176
RightUpLeg  -6.16961 -5.76408 -0.538299
RightLeg  13.415 -4.53331 -0.881656
RightFoot  -7.83133 -0.134175 2.64226
RightToes  5.38607e-012 1.2921e-014 -6.02303e-014
Spine  -7.31142 -3.21622 -1.45684
Spine1  9.13343 -3.29708 -0.183431
HEad  50.7973 9.6845 2.84191
LeftShoulder1  0.352587 2.05047 -22.0032
LeftArm  -4.12893 10.2174 -51.6677
LeftForeArm  33.161 4.66789 -12.3206
LeftHand  -0.0180128 5.53729 5.14635
RightShoulder  1.07091 -0.179019 28.1907
RightArm  -29.4576 -5.27624 48.4301
RightForeArm  65.3844 -5.17525 1.70155
RightHand  0.19944 -6.77191 -17.9488
LeftUpLeg  -5.95984 -2.20155 -0.291979
LeftLeg  12.9373 -2.37227 1.20508
LeftFoot  -7.68233 0.0143921 0.9962
LeftToes  -7.20997e-011 3.75522e-011 -2.80735e-011
3
root  13.2951 39.8285 -150.889 1.34758 -6.40231 -0.919536
RightUpLeg  -5.22651 -5.61992 -0.575947
RightLeg  12.0261 -4.10052 -0.275711
RightFoot  -7.43396 -0.127324 2.2518
RightToes  5.38607e-012 1.2921e-014 -6.02303e-014
Spine  -7.80184 -2.5715 -0.181202
Spine1  9.31606 -2.31766 -1.49505
HEad  48.9516 6.77936 0.946268
LeftShoulder1  0.461581 1.6414 -21.6189
LeftArm  -4.16693 10.7673 -51.058
LeftForeArm  33.0954 4.65337 -12.3048
LeftHand  -0.0113866 5.70079 5.18289
RightShoulder  0.961398 -0.55966 28.9433
RightArm  -29.3374 -5.0273 47.7217
RightForeArm  65.6952 -5.16487 1.70766
RightHand  0.174637 -6.623 -17.7855
LeftUpLeg  -5.12093 -2.13533 -0.141612
LeftLeg  12.0931 -1.68441 1.45706
LeftFoot  -7.59512 0.0290934 0.507115
LeftToes  -7.20997e-011 3.75522e-011 -2.80735e-011
4
root  13.0949 39.8252 -150.731 1.33325 -7.33936 -0.963957
RightUpLeg  -4.85068 -5.33195 -0.319356
RightLeg  11.7326 -3.49762 -0.014802
RightFoot  -7.53822 -0.111398 1.8133
RightToes  5.38607e-012 1.2921e-014 -6.02303e-014
Spine  -7.84491 -2.28556 0.628462
Spine1  9.15469 -1.97233 -1.77674
HEad  46.8825 3.81133 -1.81496
LeftShoulder1  0.374399 1.9779 -22.1158
LeftArm  -4.01968 11.3291 -50.1945
LeftForeArm  32.5419 4.54379 -12.3494
LeftHand  -0.0106148 5.71986 5.18502
RightShoulder  0.858126 -0.83789 28.6653
RightArm  -29.9482 -4.10604 48.0704
RightForeArm  67.4719 -5.01625 1.22028
RightHand  0.200294 -6.79251 -17.7789
LeftUpLeg  -4.75702 -2.81268 0.116016
LeftLeg  12.2688 -0.173031 1.79134
LeftFoot  -8.01135 0.051216 -0.105344
LeftToes  -7.20997e-011 3.75522e-011 -2.80735e-011
5
root  12.8782 39.8369 -150.583 1.32369 -8.09853 -0.788708
RightUpLeg  -4.46626 -5.15132 -0.240361
RightLeg  11.3795 -3.00512 0.180352
RightFoot  -7.70327 -0.0928897 1.27849
RightToes  5.38607e-012 1.2921e-014 -6.02303e-014
Spine  -8.07788 -2.36173 0.76028
Spine1  9.15887 -2.02982 -1.85371
HEad  44.902 0.558893 -4.03464
LeftShoulder1  0.357734 2.04399 -22.2831
LeftArm  -4.76939 12.3089 -49.6981
LeftForeArm  32.1234 4.66625 -12.051
LeftHand  -0.041633 4.9077 4.72122
RightShoulder  0.997712 -0.390384 28.143
RightArm  -29.646 -3.40146 48.32
RightForeArm  67.4562 -5.04 1.35697
RightHand  0.213009 -6.89957 -17.5348
LeftUpLeg  -4.16837 -2.47013 0.188
LeftLeg  11.8219 0.16029 1.95828
LeftFoot  -8.15808 0.0681138 -0.687332
LeftToes  -7.20997e-011 3.75522e-011 -2.80735e-011
6
root  12.6541 39.8459 -150.452 1.39754 -8.53766 -0.538408
RightUpLeg  -4.25877 -5.1358 -0.218844
RightLeg  11.2096 -2.52492 0.321406
RightFoot  -7.95328 -0.0825659 0.967176
RightToes  5.38607e-012 1.2921e-014 -6.02303e-014
Spine  -8.46147 -2.63167 0.354151
Spine1  9.28018 -2.36615 -1.55716
HEad  43.1524 -2.73476 -5.85482
LeftShoulder1  0.467457 1.65854 -22.3047
LeftArm  -4.73659 13.0917 -49.5232
LeftForeArm  31.8076 5.01642 -12.1225
LeftHand  -0.0434536 4.83882 4.54787
RightShoulder  1.00625 -0.346897 27.924
RightArm  -28.7804 -2.53721 48.3632
RightForeArm  66.4128 -5.16164 1.84556
RightHand  0.200622 -6.79669 -17.7563
LeftUpLeg  -3.6655 -1.71268 0.243171
LeftLeg  11.201 -0.174442 1.98403
LeftFoot  -8.20008 0.0727706 -0.857372
LeftToes  -7.20997e-011 3.75522e-011 -2.80735e-011
